<svg data-name="Слой 1" xmlns="http://www.w3.org/2000/svg" viewBox="0 0 55 50"><defs><clipPath id="a"><path style="fill:none" d="M0 0h55v50H0z"/></clipPath></defs><g style="clip-path:url(#a)"><path d="M24.36 33.45v4.25H10.59v-3.55q6.12-9.94 7.27-12.31A9.32 9.32 0 0 0 19 18.15a2.69 2.69 0 0 0-.35-1.52 1.22 1.22 0 0 0-1.06-.5 1.2 1.2 0 0 0-1.07.55 4.74 4.74 0 0 0-.34 2.21v2.37h-5.59v-.91a18.93 18.93 0 0 1 .22-3.3 5.68 5.68 0 0 1 1.07-2.38 5.28 5.28 0 0 1 2.21-1.77 8.09 8.09 0 0 1 3.27-.6A7.8 7.8 0 0 1 23 14.14a6.16 6.16 0 0 1 1.92 4.65 11 11 0 0 1-1.08 4.53 93.09 93.09 0 0 1-6.34 10.13Zm12.08-20.68V37.7h-6.26V24.34a23.76 23.76 0 0 0-.18-3.48 1.31 1.31 0 0 0-.76-.89 8 8 0 0 0-2.8-.3h-.62v-2.9a11.36 11.36 0 0 0 6.89-4Zm3.63 10.37h5.56v-5.55h3.78v5.55H55v3.75h-5.59v5.52h-3.78v-5.52h-5.56v-3.75z" style="fill:#474748"/><path d="M46.13 34.37a23 23 0 0 1-44-9.37 23 23 0 0 1 44-9.37h2.32A25.16 25.16 0 0 0 0 25a25.16 25.16 0 0 0 48.45 9.37Z" style="fill:#474748"/></g></svg>