<svg id="Слой_1" data-name="Слой 1" xmlns="http://www.w3.org/2000/svg" viewBox="0 0 30.84 24.5"><title>Casino</title><g id="icon_2_2-03" data-name="icon 2 2-03"><path id="Контур_3762" data-name="Контур 3762" d="M6,15.46H4.78l1.39-5.38h-2v-1H7.66Z" transform="translate(-0.25 -0.25)" style="fill:#0077ce"/><path id="Контур_3763" data-name="Контур 3763" d="M15.39,15.46H14.17l1.44-5.38h-2v-1h3.45Z" transform="translate(-0.25 -0.25)" style="fill:#0077ce"/><path id="Контур_3764" data-name="Контур 3764" d="M24.82,12.7H23.65l1.43-5.38h-2v-1h3.45Z" transform="translate(-0.25 -0.25)" style="fill:#0077ce"/><path id="Контур_3765" data-name="Контур 3765" d="M30.34,24.75H1A.76.76,0,0,1,.25,24V1A.76.76,0,0,1,1,.25H30.34a.76.76,0,0,1,.75.75V24A.76.76,0,0,1,30.34,24.75ZM1.75,23.25H29.59V1.75H1.75Z" transform="translate(-0.25 -0.25)" style="fill:#0077ce"/><path id="Контур_3766" data-name="Контур 3766" d="M10.43,24.75A.76.76,0,0,1,9.68,24V1a.75.75,0,0,1,1.49,0V24A.76.76,0,0,1,10.43,24.75Z" transform="translate(-0.25 -0.25)" style="fill:#0077ce"/><path id="Контур_3767" data-name="Контур 3767" d="M19.86,24.75a.77.77,0,0,1-.75-.75V1a.75.75,0,0,1,1.5,0V24A.76.76,0,0,1,19.86,24.75Z" transform="translate(-0.25 -0.25)" style="fill:#0077ce"/><path id="Контур_3768" data-name="Контур 3768" d="M30.34,16.47H20.91a.75.75,0,0,1,0-1.5h9.43a.75.75,0,1,1,0,1.5Z" transform="translate(-0.25 -0.25)" style="fill:#0077ce"/></g></svg>
