<svg xmlns="http://www.w3.org/2000/svg" version="1.1" id="Layer_1" x="0" y="0" xml:space="preserve" viewBox="73.6 4.63 82.55 49.73"><style>.st2{fill:#8c2c84}.st3{fill:#e0a94c}</style><g id="layer1_1_"><g id="g6801_1_"><g id="layer2_1_"><g id="g20358_1_"><g id="l2txtZAOQC1doniW5OaAjoe_1_"><g id="g20295_1_"><path id="p10Cc5ZsHX_1_" class="st2" d="M80.56 48.1c-2.97-.23-6.67-.79-6.93-1.06-.09-.09 0-.56.36-1.89.26-.98 1.95-7.31 3.75-14.07s3.34-12.45 3.41-12.6c.12-.3.18-.32 1.59-.67 5.6-1.37 11.09-1.71 14.98-.9 2.3.47 4.6 1.67 5.63 2.93a6.197 6.197 0 0 1 1.45 3.62c-.06 1.5-.54 2.95-1.39 4.19-.86.99-1.85 1.86-2.92 2.61-.29.18-.57.38-.82.62.19.2.39.37.62.52 1.61 1.15 2.4 2.92 2.29 5.18-.18 3.65-3.08 7.45-7.47 9.68a23.34 23.34 0 0 1-7.01 1.88c-2.52.13-5.03.12-7.54-.04zm8.88-5.63c.98-.23 1.92-.58 2.8-1.04a6.81 6.81 0 0 0 1.97-1.85c.4-.72.68-1.51.81-2.33.23-.87-.13-1.78-.88-2.27a5.63 5.63 0 0 0-2.72-.74c-2.08-.12-4.16-.14-6.24-.05l-.5.06-.17.66c-.09.36-.25.97-.35 1.34-.1.38-.3 1.14-.46 1.68-.15.54-.32 1.23-.4 1.53-.27.87-.47 1.76-.62 2.67 0 .25.04.28.43.36 2.11.24 4.23.24 6.33-.02zm3.58-13.55c2.08-.52 3.16-1.56 3.55-3.4.39-1.84-.7-3.08-3.12-3.48-1.74-.24-3.52-.12-5.21.36a.95.95 0 0 0-.38.46c-.15.33-1.56 5.55-1.64 6 0 .17.04.21.51.26.3 0 1.66.05 3.01 0 1.09.06 2.2-.01 3.28-.2z"/><path id="pGdFj5SJ8_1_" class="st2" d="M106.25 47.69c-1.63 0-3.01-.05-3.08-.07s-.06-.33 2.15-8.63c2.21-8.29 3.7-13.75 3.93-14.48.23-.73.33-.78.76-.78.32 0 .38.2.25.86-.05.2-.08.41-.07.62 0 0 1.42.08 3.08.13s3.21.14 3.41.2c.44.12.76.51.77.97 0 .28-1.05 4.26-4.71 17.68-.46 1.71-.87 3.21-.92 3.34-.05.13-.12.22-1.34.2-.72 0-2.62-.02-4.23-.04zm-.12-1.63c.14-.58.06-.66-.62-.66-.5 0-.62 0-.74.22-.22.31-.21.74 0 .8.24.03.48.05.71.04.53-.02.53-.02.62-.39l.03-.01zm2.07.37c.42-.06.47-.1.57-.41.18-.54.09-.62-.65-.62-.65 0-.65 0-.79.35-.19.44-.18.62.04.67.27.06.55.07.82.01h.01zm3.08-.13c.06-.15.09-.31.1-.47v-.38h-.62c-.24-.02-.49 0-.72.06-.19.27-.28.6-.25.94.49.04.98-.01 1.45-.15h.04zm-4.65-2.2c.13-.14.19-.32.17-.51 0-.31-.04-.32-.62-.35-.68-.04-.97.18-.97.72v.35h.62c.43 0 .59-.04.76-.21h.04zm2.65-.21c.19-.38.19-.39 0-.52-.42-.16-.89-.12-1.28.09-.09.14-.16.29-.19.45-.07.36 0 .41.79.39.47-.04.5-.06.68-.41zm2.47.32c.11-.13.19-.28.22-.44.06-.28.04-.33-.2-.43-.68-.25-1.28 0-1.39.57-.06.28-.04.31.22.35.38.1.77.08 1.13-.07l.02.02zm-4.49-2.28c.16-.44.15-.62-.04-.7-.39-.08-.8-.08-1.19 0-.19.27-.29.6-.28.93.23.07.48.1.72.08.65 0 .65 0 .77-.33l.02.02zm2.57 0c.23-.66.15-.76-.72-.76-.51 0-.54 0-.62.3-.23.67-.15.75.78.77.39-.01.43-.02.54-.33l.02.02zm2.69-.18c.14-.51.06-.58-.71-.58-.53 0-.58 0-.72.3-.08.15-.13.32-.15.49 0 .18.06.2.74.2h.74l.1-.41zm-4.73-1.9c.12-.12.2-.28.23-.44.06-.29 0-.34-.2-.43-.34-.13-.71-.13-1.05 0-.2.11-.44.73-.35.89.45.13.93.12 1.37-.02zm2.67-.1c.1-.15.15-.32.16-.49 0-.34-.28-.44-.94-.34-.49.08-.62.26-.62.75v.3h.62c.55-.01.66-.04.78-.22zm2.59.06c.11-.15.16-.34.13-.52v-.36h-.55c-.51 0-.62 0-.77.24-.12.16-.19.35-.21.54 0 .28 0 .28.62.28.44-.03.67-.08.77-.18h.01zm-1.64-3.41c.14-.52.06-.62-.76-.62h-.62l-.09.41c-.18.62-.18.62.62.62h.73l.12-.41z"/><path id="pZA4WBB5N_1_" class="st2" d="M116.39 47.5c.03-.1.28-1.07.55-2.15.28-1.08.86-3.29 1.28-4.89.43-1.6 1.23-4.55 1.73-6.56 1.21-4.66 1.69-6.36 1.89-6.64.51-.78 5.37-1.95 9.47-2.3 2.36-.2 6.33 0 6.67.38.07.07 0 .44-.2 1.28-.26 1.16-.59 2.3-.99 3.43-.35.02-.69-.02-1.02-.12-.76-.14-1.52-.25-2.29-.31a7.71 7.71 0 0 0-2.25.05c-1.36.24-2.9.8-3.21 1.16-.12.15-.92 3.03-2.72 9.86-.62 2.37-1.29 4.93-1.5 5.66l-.36 1.35h-3.54c-3.35-.04-3.56-.04-3.51-.2z"/><path id="pEolOFqKi_1_" class="st2" d="M134.52 47.59c0-.04.47-1.85 1.05-4.03 4.79-18.09 4.31-16.37 4.61-16.57 1.01-.67 5.27-1.65 8.66-2.01 2.46-.25 6.92-.07 7.31.32-.28 1.6-.67 3.17-1.18 4.71-.37.01-.74-.04-1.1-.14-.97-.2-1.96-.28-2.95-.23-1.85 0-1.96 0-2.77.26-1.23.39-1.91.76-2.06 1.07-.06.15-1.1 3.92-2.29 8.4-1.2 4.47-2.22 8.16-2.29 8.21-.14.11-6.99.11-6.99.01z"/><path id="pmzRZFoxR_1_" class="st2" d="M84.92 13.78c-.88-.19-1.61-.8-1.97-1.62-.34-1.06-.32-2.2.05-3.26.27-.87.73-1.68 1.36-2.35a6.149 6.149 0 0 1 5.35-1.85c.67.1 1.31.31 1.92.62-.03.55-.16 1.1-.38 1.6-.11.13-.23.1-.94-.18-.7-.35-1.48-.52-2.27-.49a4.115 4.115 0 0 0-2.99 3.34c-.21 1.15 0 1.9.62 2.39s1.56.43 3.38-.18c.31-.12.64-.21.97-.26-.1.61-.29 1.19-.57 1.74-.55.42-3.41.77-4.53.5z"/><path id="pFTdMBQjl_1_" class="st2" d="m92.08 13.8-.76-.15c-.22-.04-.32-.12-.32-.23 0-.11 1.53-5.96 1.94-7.34.19-.66.31-.88.47-.95 1.46-.44 3-.54 4.5-.32 1.36.32 2.06.98 2.06 1.93 0 .53-.17.85-.82 1.5l-.62.62.26.27c.63.58.75 1.53.3 2.25-.3.7-.82 1.28-1.47 1.66-.99.62-1.64.79-3.52.83-.67.01-1.35-.01-2.02-.07zm3.26-1.5c1.15-.19 1.95-.95 1.85-1.78-.06-.57-.39-.71-1.81-.76l-1.23-.04-.11.28c-.23.66-.39 1.35-.49 2.04 0 .2.06.27.23.3.51.08 1.03.06 1.53-.04h.03zm1.6-4.14c.72-.35.99-1.23.51-1.67-.2-.17-.39-.23-1.03-.27-1.07-.08-1.28 0-1.47.44-.23.49-.36 1.02-.41 1.56.15.31 1.73.27 2.4-.06z"/><path id="pk7mNKdKm_1_" class="st2" d="M99.86 13.55c0-.22 1.61-6.37 2.08-7.97l.19-.65.77-.04c1.16-.07 6.12-.04 6.16.03.01.26-.02.52-.09.78l-.17.7h-2.08c-1.13 0-2.25.03-2.46.07-.39.07-.39.07-.57.76-.3 1.16-.44 1.08 1.92 1.13.7 0 1.4.04 2.1.12.01.25-.03.5-.13.74l-.18.67h-4.36l-.26.8c-.12.38-.19.77-.22 1.16v.28h1.85c.96-.06 1.92-.01 2.86.14 0 .19-.03.38-.08.57-.23.95.16.87-3.8.87-3.1-.01-3.53-.01-3.53-.16z"/></g></g><g id="l6WDwpWqDIsJkP2dlA3cUkj_1_"><g id="g20309_1_"><path id="pnx7BX4S_1_" class="st3" d="M130.41 54.28c-.08-.07 0-.35.24-1.02.52-1.39.53-1.43.3-1.55-.14-.08-.18-.21-.18-.55 0-.57.08-.74.35-.74.26 0 .41.16.46.54 0 .23.09.3.36.38.26.07.43.3.22.43-.07.07-.1.16-.1.25 0 .14.07.19.29.19.15 0 .31.04.43.14.26.62.4 1.28.39 1.95a.5.5 0 0 1-.38 0c-.25-.07-.3-.15-.45-.75-.07-.3-.18-.58-.33-.84-.15-.14-.17-.14-.32 0-.16.28-.29.58-.37.89-.21.67-.25.73-.52.76a.672.672 0 0 1-.39-.08z"/><path id="pCpZ1E7bP_1_" class="st3" d="M119.93 54.02c-.19-.09-.35-.22-.49-.38-.25-.4-.44-3.31-.22-3.45.15-.04.3-.04.44 0l.34.07v1.45c0 1.71.08 1.95.62 1.95s.62-.28.62-1.95v-1.4l.38-.03c.36 0 .36 0 .36.31 0 .22.02.44.06.65.06.31.07.31.69.31.23-.02.47.01.68.1.04.13.04.27 0 .39-.1.44-.51.51-.8.15-.3-.36-.47-.28-.62.54s-.28 1.03-.87 1.29c-.36.2-.82.2-1.19 0z"/><path id="pV0MXqXKq_1_" class="st3" d="M138.1 54.03c-.48-.34 0-.9.52-.65.29.14.31.41.07.62-.25.19-.32.23-.59.03z"/><path id="pGqvGCCUe_1_" class="st3" d="M102.81 53.82c.02-1.06-.06-2.11-.26-3.15-.19-.2-.51-.2-.71 0l-.05.05c-.16.18-.2.39-.22 1.33l-.04 1.13h-.79v-1.02c0-1.67.22-1.96 1.47-1.97.69 0 .74 0 1 .3s.28.44.35 1.05c.09.8.07 1.6-.07 2.39-.11.07-.23.11-.36.11-.27.06-.31.04-.32-.22z"/><path id="p1AhAwjuM9_1_" class="st3" d="M104.5 53.47c0-.84.36-1.63.99-2.19.41-.33.43-.35.3-.67-.18-.51-.15-.62.24-.62s.47.12.68.91l.13.52h.49c.73.04.9.1.95.34.15.55-.4.77-.78.31-.16-.2-.26-.25-.33-.18s-.03.38.15 1.02c.12.34.17.7.15 1.06-.12.06-.26.07-.39.04-.28-.04-.31-.09-.62-1.13-.21-.62-.39-1.07-.47-1.07-.35 0-.62.62-.78 1.69-.05.36-.12.47-.28.52-.4.13-.43.08-.43-.55z"/><path id="pmtiVBGOX_1_" class="st3" d="M109.54 54a.918.918 0 0 1-.32-.1c-.04-.51-.04-1.03 0-1.55.08-1.68.18-1.93.77-2.13.29-.08.6-.1.9-.06.79.08 1 .33 1.12 1.23.13.82.13 1.65 0 2.46-.1.2-.53.26-.62.08-.08-.55-.13-1.1-.14-1.65l-.06-1.54-.33-.07c-.7-.15-.8.07-.8 1.77-.03 1.42-.11 1.64-.52 1.56z"/><path id="p183NW0OtZ_1_" class="st3" d="M114.7 54.02c-.22-.04-.23-.08-.23-1.08s0-1.02-.18-1.02c-.19.05-.36.15-.49.3-.25.28-.3.29-.54.18s-.31-.25-.21-.65c.06-.2.12-.22.75-.22h.68v-.99h-.54c-.49 0-.56 0-.66-.23a.436.436 0 0 1 .23-.65c.19-.07.26-.04.47.2.21.23.34.29.79.31h.54v.54c-.02.22-.01.45.05.67.22.11.47.16.72.15.62 0 .62 0 .67.35.04.18-.04.37-.2.46-.31.22-.35.21-.52-.14-.09-.18-.23-.3-.35-.3-.31 0-.43.35-.37 1.05s-.04 1.13-.25 1.11l-.36-.04z"/><path id="p10p5RFmJG_1_" class="st3" d="M134.18 53.97c-.22-.13-.2-.71.04-1.42.15-.42.4-.8.72-1.1l.51-.52-.16-.44c-.09-.25-.14-.46-.1-.48.13-.03.27-.03.41 0l.35.07.62 1.85c.23.64.42 1.29.56 1.95-.12.07-.25.09-.39.08h-.3l-.38-1.1c-.12-.4-.29-.78-.49-1.14-.2-.07-.62.92-.7 1.59-.05.57-.08.65-.28.68-.13.02-.27.02-.41-.02z"/><path id="p1sWkKRsI_1_" class="st3" d="M124.19 53.86c-.01-.57.1-1.13.31-1.66.18-.28.39-.55.62-.8.44-.47.44-.48.34-.86-.16-.51-.17-.51.22-.51s.43.04.71.84l.21.62h.58c.9.05 1.23.52.62.89-.26.15-.27.15-.52-.16-.52-.62-.57-.34-.2.84.14.43.25.8.25.85s-.16.07-.35.07c-.41 0-.47-.1-.84-1.28-.2-.68-.3-.84-.45-.84s-.62.7-.68 1.38c-.01.21-.07.42-.17.62-.16.17-.58.17-.65 0z"/><path id="p12xODqIcd_1_" class="st3" d="M138.13 52.71c-.07-.44-.12-.88-.12-1.33l-.06-1.23h.82v.87c0 1.31-.1 1.74-.35 1.78-.13 0-.26-.03-.29-.09z"/><path id="p10XxLMKWx_1_" class="st3" d="M116.8 24.74c-.52-.74-3.15-4.81-3.31-5.13-.26-.51-.25-.62.12-1.28.76-1.34 2.13-2.17 4.42-2.78 4.31-1.15 5.19-1.5 6.16-2.46.37-.38.7-.79.98-1.23.2-.35.43-.62.47-.56.05.06 1.51 2.16 2.82 4.21.34.46.61.96.81 1.49 0 .37-.91 1.68-1.49 2.14-1 .8-1.89 1.15-4.82 1.9-1.06.26-2.19.62-2.5.72a6.46 6.46 0 0 0-3.12 2.6l-.36.62-.18-.24z"/></g></g></g></g></g></g></svg>
