<?xml version="1.0" encoding="UTF-8"?>
<svg id="Layer_1" data-name="Layer 1" xmlns="http://www.w3.org/2000/svg" viewBox="0 0 25 25">
  <defs>
    <style>
      .cls-1 {
        fill: #0077ce;
      }
    </style>
  </defs>
  <path class="cls-1" d="M24.38,9.56c-.04-.36,.08-.72,.33-.98,.18-.17,.28-.41,.28-.66s-.1-.48-.27-.65L17.74,.29c-.16-.18-.39-.28-.63-.28C16.85,0,16.6,.1,16.42,.28c-.19,.19-.43,.31-.7,.33-.36,.05-.72-.08-.98-.34-.18-.17-.42-.27-.67-.27s-.48,.1-.65,.27L.3,13.4c-.19,.17-.29,.41-.29,.66s.1,.49,.28,.66c.2,.18,.31,.43,.33,.7,.05,.36-.08,.72-.34,.98-.18,.17-.28,.41-.27,.66,0,.24,.1,.48,.27,.65l6.83,6.83c.17,.18,.41,.27,.66,.27h0c.24,0,.47-.09,.64-.26,.48-.47,1.25-.47,1.72,.01,.03,.03,.05,.06,.08,.09,.17,.2,.41,.33,.68,.35h.04c.24,0,.48-.1,.65-.27l2.42-2.42,.13-.18s.03-.09,0-.13l-.1-.18c-.16-.28-.3-.57-.41-.87l-.17-.46s-.05-.07-.09-.08c-.04,0-.08,0-.11,.03l-2.37,2.37c-.58-.36-1.27-.52-1.95-.44-.37,.04-.73,.15-1.07,.32l-5.73-5.73c.27-.54,.39-1.14,.32-1.74-.04-.37-.15-.73-.32-1.06L14.17,2.13c.54,.28,1.16,.39,1.76,.32,.36-.05,.71-.16,1.04-.32l5.89,5.89c-.46,.88-.46,1.93,0,2.81l-2.21,2.21s-.05,.12,0,.17c.01,.01,.03,.02,.05,.03l.48,.16c.31,.1,.6,.24,.87,.42l.18,.11s.11,.02,.15-.02l2.33-2.33c.18-.17,.28-.41,.28-.66s-.09-.47-.27-.64c-.19-.2-.31-.45-.34-.72Z"/>
  <path class="cls-1" d="M14.87,6.31c.19-.03,.38-.08,.56-.15l3.51,3.53c-.13,.35-.18,.73-.14,1.1,.02,.2,.07,.39,.14,.58l-1.63,1.64s-.04,.09-.02,.14,.07,.07,.12,.07l.93-.13c.45-.06,.9-.07,1.34-.03h.13s.07,0,.1-.02l.85-.86c.18-.16,.28-.39,.28-.63s-.09-.49-.27-.67c-.08-.08-.12-.18-.13-.28-.02-.13,.03-.27,.12-.37,.18-.17,.28-.41,.28-.66s-.1-.48-.27-.65l-4.54-4.55c-.17-.19-.42-.29-.67-.29s-.48,.11-.66,.28c-.06,.07-.15,.11-.24,.12-.14,.02-.27-.03-.38-.12-.17-.18-.42-.28-.67-.28h0c-.24,0-.48,.09-.64,.26L4.43,12.88c-.19,.17-.29,.42-.29,.67s.11,.49,.28,.66c.07,.07,.11,.17,.11,.27,.02,.13-.02,.26-.11,.35-.37,.34-.39,.92-.05,1.28,0,.01,.02,.02,.03,.03l4.43,4.43c.17,.18,.41,.28,.66,.27h0c.23,0,.46-.08,.62-.25,.08-.08,.19-.13,.31-.14,.15-.02,.31,.04,.4,.17,.17,.21,.42,.33,.68,.34h.04c.24,0,.48-.1,.65-.27l.96-.96,.09-.11s.03-.05,.02-.09v-.13c-.03-.17-.04-.35-.04-.52,0-.26,.02-.52,.05-.78l.13-.93s-.02-.1-.07-.12c-.05-.02-.1-.01-.14,.02l-1.75,1.75c-.39-.19-.82-.26-1.24-.21-.2,.02-.4,.07-.59,.14l-3.41-3.41c.21-.54,.21-1.14,0-1.68l7.51-7.52c.36,.14,.74,.19,1.12,.15l.04,.02Z"/>
  <path class="cls-1" d="M21.48,17.57c-.31-.3-.8-.29-1.11,0l-1.37,1.38-.83-.82c-.15-.15-.35-.23-.56-.23h0c-.2,0-.4,.07-.54,.22-.15,.14-.24,.34-.24,.55s.08,.42,.23,.57l1.38,1.38h0c.31,.31,.8,.31,1.11,0h0l1.93-1.93c.31-.31,.3-.81,0-1.12Z"/>
  <path class="cls-1" d="M19.12,13.75c-2.84,0-5.15,2.3-5.15,5.15s2.3,5.15,5.15,5.15,5.15-2.3,5.15-5.15-2.31-5.14-5.15-5.15Zm0,8.58c-1.09,0-2.11-.52-2.76-1.4-.44-.59-.67-1.31-.67-2.04,0-1.9,1.54-3.44,3.44-3.44s3.44,1.54,3.44,3.44-1.54,3.44-3.44,3.44h-.01Z"/>
</svg>