<?xml version="1.0" encoding="UTF-8"?>
<svg id="Layer_1" data-name="Layer 1" xmlns="http://www.w3.org/2000/svg" viewBox="0 0 25 25">
  <defs>
    <style>
      .cls-1 {
        fill: #0077ce;
      }
    </style>
  </defs>
  <path class="cls-1" d="M19.24,18.36c2.68-3.36,2.68-8.15,0-11.51-.29-.29-.67-.38-1.05-.1-.29,.29-.38,.67-.1,1.05h0c2.3,2.78,2.3,6.81,0,9.68-.29,.29-.19,.77,.1,1.05,.38,.19,.86,.1,1.05-.19h0Z"/>
  <path class="cls-1" d="M6.78,6.75c-.29-.29-.77-.29-.96,.1-2.68,3.36-2.68,8.15,0,11.51,.19,.29,.67,.38,.96,.1s.38-.67,.1-1.05h0c-2.3-2.88-2.3-6.9,0-9.68,.29-.29,.19-.77-.1-.96Z"/>
  <circle class="cls-1" cx="12.53" cy="12.79" r="4.6"/>
  <path class="cls-1" d="M3.8,5.79c.58-.86,1.34-1.53,2.21-2.21,.29-.29,.38-.67,.1-1.05-.29-.29-.67-.38-1.05-.1C-.61,6.75-1.66,14.81,2.65,20.37c.67,.96,1.53,1.73,2.49,2.4,.29,.29,.77,.19,1.05-.1,.29-.29,.19-.77-.1-1.05h0C1.02,17.88,.06,10.78,3.8,5.79Z"/>
  <path class="cls-1" d="M24.9,10.88c-.48-3.36-2.21-6.42-4.99-8.44-.29-.29-.77-.19-1.05,.1s-.19,.77,.1,1.05h0c5.08,3.74,6.04,10.84,2.3,15.82-.67,.86-1.44,1.63-2.3,2.3-.29,.19-.38,.67-.19,1.05,.19,.29,.67,.38,1.05,.19,3.74-2.78,5.66-7.48,5.08-12.08h0Z"/>
</svg>