<svg id="Layer_1" xmlns="http://www.w3.org/2000/svg" viewBox="0 0 587.24 85.96"><defs><style>.cls-1{fill:#dba73e}.cls-2{fill:#fff}</style></defs><path class="cls-1" d="M109.41 84.41s4.32-73.09-24.23-77.87C56.63 1.76 0 85.96 0 85.96s40.29-48.44 70.3-48.44c33.94 0 39.11 46.9 39.11 46.9Z"/><path class="cls-2" d="M267.67 28.31a29.288 29.288 0 0 0-14.35-3.77c-16.17 0-29.33 13.16-29.33 29.33s13.16 29.33 29.33 29.33c4.38 0 8.7-1 12.62-2.87v2.87h16.29V24.54h-7.22c-3.03 0-5.7 1.49-7.35 3.77Zm-1.72 5.31v43.1c-2.35.75-4.8 1.15-7.29 1.15-15.62 0-17.95-15.04-17.95-24s2.33-24 17.95-24c2.62 0 5.19.44 7.65 1.26-.22.79-.35 1.62-.35 2.48ZM162.99 28.31a29.288 29.288 0 0 0-14.35-3.77c-16.17 0-29.33 13.16-29.33 29.33s13.16 29.33 29.33 29.33c4.38 0 8.7-1 12.62-2.87v2.87h16.29V24.54h-7.22c-3.03 0-5.7 1.49-7.35 3.77Zm-1.73 5.31v43.1c-2.35.75-4.8 1.15-7.29 1.15-15.62 0-17.95-15.04-17.95-24s2.33-24 17.95-24c2.62 0 5.19.44 7.64 1.26-.22.79-.35 1.62-.35 2.48ZM331.53 9.08v18.34a29.247 29.247 0 0 0-12.62-2.87c-16.17 0-29.33 13.16-29.33 29.33s13.16 29.33 29.33 29.33c4.38 0 8.7-1 12.62-2.87v2.87h16.29V0h-7.22a9.08 9.08 0 0 0-9.08 9.08Zm0 67.63c-2.35.75-4.8 1.15-7.29 1.15-15.62 0-17.95-15.04-17.95-24s2.33-24 17.95-24c2.5 0 4.94.4 7.29 1.15V76.7ZM398.83 28.31a29.288 29.288 0 0 0-14.35-3.77c-16.17 0-29.33 13.16-29.33 29.33s13.16 29.33 29.33 29.33c4.38 0 8.7-1 12.62-2.87v2.87h16.29V24.54h-7.22c-3.03 0-5.7 1.49-7.35 3.77Zm-1.72 5.31v43.1c-2.35.75-4.8 1.15-7.29 1.15-15.62 0-17.95-15.04-17.95-24s2.33-24 17.95-24c2.62 0 5.19.44 7.64 1.26-.22.79-.35 1.62-.35 2.48ZM202.29 36.9V24.54h-7.22a9.08 9.08 0 0 0-9.08 9.08V83.2h16.29V46.47c2.98-5.63 8.23-8 12.38-8.39s7.19 1.23 7.19 1.23V24.77s-14.59-2.97-19.57 12.12Z"/><path class="cls-1" d="M450.61 24.54c-4.38 0-8.7 1-12.63 2.87V9.08A9.08 9.08 0 0 0 428.9 0h-7.22v83.19h16.29v-2.87c3.93 1.88 8.24 2.87 12.63 2.87 16.17 0 29.33-13.16 29.33-29.33s-13.16-29.33-29.33-29.33Zm-5.33 53.33c-2.5 0-4.94-.4-7.29-1.15v-45.7c2.35-.75 4.8-1.15 7.29-1.15 15.62 0 17.95 15.04 17.95 24s-2.33 24-17.95 24ZM517.3 24.54c-.22 0-.43 0-.65.02h-.5c-.22 0-.43-.02-.65-.02-16.17 0-29.33 13.16-29.33 29.33S499.33 83.2 515.5 83.2c.22 0 .43 0 .65-.02h.5c.22 0 .43.02.65.02 11.92 0 22.18-7.16 26.76-17.39H528.2s-1.92 11.59-11.8 11.59-12.94-12.77-13.42-20.5h43.49c.1-.99.16-2 .16-3.03 0-16.17-13.16-29.33-29.33-29.33Zm-14.32 26.3c.48-7.73 3.54-20.5 13.42-20.5s12.94 12.77 13.42 20.5h-26.84ZM587.24 33v-8.46h-12.53V6.97h-7.23a9.08 9.08 0 0 0-9.08 9.08v8.49h-8V33h8v25.73c0 13.48 10.97 24.44 24.44 24.44V66.86c-4.49 0-8.14-3.65-8.14-8.14V32.99h12.53Z"/><path class="cls-2" d="m54.89 55.05-.15.04-.22.4-.18.36-.16.32c-.04.09-.07.15-.1.21-.09.19-.16.38-.24.56l-.16.39c-.12.31-.23.61-.32.9-.12.38-.21.69-.3 1l-.12.5c-.04.17-.08.32-.11.47l-.1.58c-.03.14-.05.27-.07.41l-.06.47.09.12 2.25-3-.05-3.75ZM82.43 58.06l.07-4.5c-.51-.55-1.54-1.57-2.72-2.43-1.23-.89-2.76-1.7-3.54-2.1l-4.33 1.48v4.35l5.32 4.43 5.21-1.22ZM73.85 46.45l-.08-.13-.45-.09c-.12-.02-.25-.04-.39-.06l-.61-.09c-.17-.02-.34-.03-.51-.04l-.48-.04c-.31-.02-.62-.03-.95-.03h-.12c-.35 0-.66.01-.96.03l-.37.03c-.24.02-.44.03-.63.05l-.4.05c-.21.03-.42.05-.61.09-.1.02-.21.04-.32.06l-.13.02-.08.13 3.54 1.21 3.55-1.21ZM68.69 50.51 64.29 49c-.68.28-2 .88-3.15 1.71-1.23.9-2.46 2.18-3.05 2.83l.06 4.51 5.2 1.24 5.33-4.43v-4.35ZM67.02 70.27l-3.29 5.16 2.68 3.8c.77.13 2.26.34 3.9.34 1.63 0 3.05-.19 3.84-.33l2.69-3.81-3.27-5.16h-6.54ZM87.98 61.7l-.06-.47c-.01-.11-.03-.21-.05-.31l-.35-1.68c-.06-.23-.13-.46-.2-.7-.07-.21-.11-.36-.16-.5-.1-.29-.17-.5-.25-.7l-.21-.5c-.06-.15-.12-.29-.18-.42l-.67-1.31-.15-.04-.06 3.74 2.24 3 .09-.11ZM65.62 61.58l1.7 5.47h5.93l1.7-5.47c-2.4-2-3.82-3.18-4.66-3.89l-4.68 3.89ZM78.07 62.39l-1.88 6.04 3.27 5.15 4.33-1.33c.36-.65 1.02-1.96 1.52-3.5l.04-.11c.49-1.53.72-2.98.82-3.72l-2.81-3.76-5.29 1.24ZM79.76 76.86l-2.16 3.07.15.05 1.03-.51c.09-.05.18-.1.28-.16l.43-.25.33-.21 1.74-1.25c.08-.07.18-.15.27-.23l.37-.32c.21-.19.42-.38.63-.59.16-.16.32-.32.47-.49l.07-.07v-.16l-3.59 1.1ZM62.49 62.39l-5.28-1.26-2.82 3.76c.1.8.33 2.23.81 3.69.49 1.51 1.2 2.93 1.58 3.65l4.31 1.33 3.28-5.14-1.88-6.04ZM60.79 76.85l-3.58-1.11v.16l.39.41c.2.2.41.4.63.61l.27.23c.13.12.26.23.38.33l.31.25c.13.11.25.2.37.29l.37.27c.12.09.23.17.34.25l2.53 1.43.15-.05-2.16-3.06Z"/><path class="cls-2" d="M70.3 83.69c-10.98 0-19.91-8.93-19.91-19.91s8.93-19.91 19.91-19.91 19.91 8.93 19.91 19.91-8.93 19.91-19.91 19.91Zm0-38.82c-10.43 0-18.91 8.48-18.91 18.91s8.48 18.91 18.91 18.91 18.91-8.48 18.91-18.91-8.48-18.91-18.91-18.91Z"/></svg>
