<svg xmlns="http://www.w3.org/2000/svg" width="22.9" height="28.625" viewBox="0 0 22.9 28.625"><path d="M20.057 9.263h-.067l-.112-.183a.893.893 0 0 0-.18-.091h-.079a.364.364 0 0 0-.112 0 .607.607 0 0 0-.2 0h-.382l-.191.114h-.09c-.034 0 0 0 0 .057a1.142 1.142 0 0 0-.135.183.922.922 0 0 0-.09.183.5.5 0 0 0 0 .08 9.961 9.961 0 0 1-.719 1.83A18.857 18.857 0 0 0 9.911.16 1.02 1.02 0 0 0 8.69.256a1.065 1.065 0 0 0-.27 1.219c0 .08 2.9 7.033-1.494 12.294a9.643 9.643 0 0 1-2.252-4.094.5.5 0 0 0 0-.08 1.5 1.5 0 0 0-.09-.194.922.922 0 0 0-.135-.16v-.069c0-.011-.067 0-.1 0l-.18-.114h-.91a.893.893 0 0 0-.18.091 1.781 1.781 0 0 0-.169.137h-.067a11.8 11.8 0 0 0 .689 16.1 11.306 11.306 0 0 0 15.837 0 11.8 11.8 0 0 0 .689-16.1ZM11.45 26.475a9.331 9.331 0 0 1-8.106-4.766 9.674 9.674 0 0 1 0-9.53 11.106 11.106 0 0 0 2.978 3.934l.2.1h.079a1.029 1.029 0 0 0 .371.08 1.318 1.318 0 0 0 .4-.1.144.144 0 0 0 .112-.069 1.268 1.268 0 0 0 .2-.137 13.362 13.362 0 0 0 3.575-11.939 17 17 0 0 1 4.652 10.293v.091a1.158 1.158 0 0 0 .09.286 1.145 1.145 0 0 0 .1.149 1.384 1.384 0 0 0 .112.16l.135.091a1.564 1.564 0 0 0 .191.1.883.883 0 0 0 .169 0h.27a.917.917 0 0 0 .169 0 .832.832 0 0 0 .18-.057 1.2 1.2 0 0 0 .247-.172h.079a11.572 11.572 0 0 0 1.8-2.79 9.685 9.685 0 0 1 .005 9.462 9.346 9.346 0 0 1-8.006 4.81Z" fill="#fafafa"/></svg>