<?xml version="1.0" encoding="UTF-8"?>
<svg id="Layer_1" data-name="Layer 1" xmlns="http://www.w3.org/2000/svg" viewBox="0 0 25 25">
  <defs>
    <style>
      .cls-1 {
        fill: #0077ce;
      }
    </style>
  </defs>
  <path class="cls-1" d="M3.28,1.91C1.45,1.91,0,3.36,0,5.1s1.45,3.28,3.28,3.28,3.28-1.45,3.28-3.28S5.11,1.91,3.28,1.91Zm1.25,3.18c0,.68-.58,1.25-1.25,1.25s-1.35-.48-1.35-1.25,.58-1.25,1.35-1.25,1.25,.58,1.25,1.25Z"/>
  <path class="cls-1" d="M8.2,5.96h15.73c.58,0,1.06-.48,1.06-1.06,.1-.58-.39-1.06-.96-1.06H8.2c-.58,0-1.06,.48-1.06,1.06s.48,1.06,1.06,1.06Z"/>
  <path class="cls-1" d="M3.28,9.24c-1.83,0-3.28,1.45-3.28,3.28s1.45,3.28,3.28,3.28,3.28-1.45,3.28-3.28-1.45-3.28-3.28-3.28Zm1.25,3.28c0,.68-.58,1.25-1.25,1.25s-1.35-.58-1.35-1.25,.58-1.25,1.25-1.25,1.35,.48,1.35,1.25Z"/>
  <path class="cls-1" d="M24.02,11.27H8.2c-.58,0-1.06,.48-1.06,1.06s.48,1.06,1.06,1.06h15.73c.58,0,1.06-.48,1.06-1.06,.1-.58-.39-1.06-.96-1.06h-.01Z"/>
  <path class="cls-1" d="M3.28,16.67c-1.83,0-3.28,1.45-3.28,3.28s1.45,3.18,3.28,3.18,3.28-1.45,3.28-3.28-1.45-3.18-3.28-3.18Zm1.25,3.28c0,.68-.58,1.25-1.25,1.25s-1.35-.58-1.35-1.25,.58-1.25,1.25-1.25,1.35,.48,1.35,1.25Z"/>
  <path class="cls-1" d="M24.02,18.6H8.2c-.58,0-1.06,.48-1.06,1.06s.48,1.06,1.06,1.06h15.73c.58,0,1.06-.48,1.06-1.06,.1-.58-.39-1.06-.96-1.06h-.01Z"/>
</svg>