<?xml version="1.0" encoding="UTF-8"?>
<svg id="Layer_1" data-name="Layer 1" xmlns="http://www.w3.org/2000/svg" viewBox="0 0 25 25">
  <defs>
    <style>
      .cls-1 {
        fill: #0077ce;
      }
    </style>
  </defs>
  <path class="cls-1" d="M24.11,18.35h-3.01V5.27c0-2.61-2.13-4.74-4.75-4.74H3.61C1.62,.53,0,2.15,0,4.15v1.64c0,.47,.38,.86,.86,.86h15.19c.47,0,.86-.38,.86-.86V2.29c1.41,.26,2.48,1.49,2.48,2.98V22.17H7.79c-1.87,0-3.39-1.51-3.39-3.39V9.01c0-.47-.38-.86-.86-.86s-.86,.38-.86,.86v9.77c0,2.81,2.29,5.1,5.1,5.1h12.51c2.57,0,4.67-2.09,4.67-4.67,0-.47-.38-.86-.86-.86ZM15.19,4.94H1.72v-.79c0-1.05,.85-1.91,1.9-1.91H15.19v2.69Zm5.91,17.11v-1.98h2.02c-.28,.96-1.05,1.71-2.02,1.98Z"/>
  <path class="cls-1" d="M15.13,10.46h-6.97c-.47,0-.86-.38-.86-.86s.38-.86,.86-.86h6.97c.47,0,.86,.38,.86,.86s-.38,.86-.86,.86Z"/>
  <path class="cls-1" d="M14.09,14.32h-5.94c-.47,0-.86-.38-.86-.86s.38-.86,.86-.86h5.94c.47,0,.86,.38,.86,.86s-.38,.86-.86,.86Z"/>
  <path class="cls-1" d="M12.39,18.41h-4.23c-.47,0-.86-.38-.86-.86s.38-.86,.86-.86h4.23c.47,0,.86,.38,.86,.86s-.38,.86-.86,.86Z"/>
</svg>