<?xml version="1.0" encoding="UTF-8"?>
<svg id="Layer_1" data-name="Layer 1" xmlns="http://www.w3.org/2000/svg" viewBox="0 0 25 25">
  <defs>
    <style>
      .cls-1 {
        fill: #0077ce;
      }
    </style>
  </defs>
  <path class="cls-1" d="M16.02,14.95c.15-.13,.26-.25,.33-.34l3.4-4.86c.19-.25,.16-.61-.09-.84-.24-.19-.58-.19-.79-.01l-5.13,3.18c-.46,.31-.75,.81-.8,1.36-.06,.55,.15,1.1,.56,1.46,.11,.1,.44,.43,1,.52,.81,.13,1.41-.37,1.53-.47h0Zm-1.79-1.35c0-.14,.08-.27,.2-.34l2.36-1.48-1.51,2.17c-.1,.13-.25,.21-.44,.22-.17,.03-.34-.02-.45-.15l-.02-.02c-.09-.11-.14-.26-.14-.4Z"/>
  <path class="cls-1" d="M2.94,11.92h7.84c.61,0,1.13-.41,1.13-.9s-.51-.89-1.13-.89H2.94c-.64,0-1.13,.39-1.13,.89s.51,.9,1.13,.9Z"/>
  <path class="cls-1" d="M11.91,18.08c0-.49-.51-.9-1.13-.9H2.94c-.63,0-1.13,.4-1.13,.9s.51,.89,1.13,.89h7.84c.63,0,1.13-.4,1.13-.89Z"/>
  <path class="cls-1" d="M10.87,15.4c.5,0,.94-.35,1.04-.84v-.08c-.08-.56-.6-.95-1.13-.86H1.17c-.57-.09-1.08,.31-1.17,.9,0,.48,.52,.89,1.13,.89H10.87Z"/>
  <path class="cls-1" d="M15.13,2.7h-1.97c-.05,0-.1-.03-.13-.07s-.05-.09-.05-.15v-.05c0-.09,.1-.16,.21-.15h3.84c.11,0,.22,.06,.22,.19,0,.15-.09,.25-.23,.24h-1.89Zm8.9,5.38c.23,0,.45-.09,.61-.25,.35-.34,.36-.9,.01-1.26l-2.2-2.19c-.34-.32-.87-.32-1.22,0-.33,.35-.33,.88,0,1.23l.4,.4-.16,.15c-.63-.54-1.34-1.01-2.11-1.38-.75-.37-1.52-.63-2.3-.8,.83-.02,1.5-.67,1.52-1.53-.06-.81-.73-1.44-1.55-1.44h-3.85c-.82,.03-1.48,.67-1.52,1.51,.02,.67,.47,1.22,1.07,1.42-2.19,.46-4.24,1.63-5.78,3.45-.32,.38-.27,.95,.11,1.27s.97,.28,1.3-.1c2.96-3.49,8.1-4.01,11.75-1.16,1.71,1.35,2.79,3.28,3.05,5.45,.25,2.16-.35,4.3-1.7,6.01-2.84,3.58-7.96,4.27-11.65,1.56-.39-.28-.95-.2-1.26,.21-.28,.39-.19,.93,.2,1.21,1.77,1.28,3.85,1.95,6.03,1.95h.1c4.68,0,8.72-3.16,9.85-7.72,.74-3.09-.09-6.3-2.03-8.66l.16-.16,.56,.57c.16,.16,.38,.25,.6,.26h.01Z"/>
</svg>