<svg id="Слой_1" data-name="Слой 1" xmlns="http://www.w3.org/2000/svg" xmlns:xlink="http://www.w3.org/1999/xlink" viewBox="0 0 46 46"><defs><clipPath id="clip-path"><circle cx="23" cy="23" r="23" style="fill:none"/></clipPath><linearGradient id="Безымянный_градиент" x1="-96.6" y1="143" x2="-96.4" y2="143" gradientTransform="translate(-34297 -23137) rotate(-90) scale(240)" gradientUnits="userSpaceOnUse"><stop offset="0" stop-color="#1d93d2"/><stop offset="1" stop-color="#38b0e3"/></linearGradient><clipPath id="clip-path-2"><rect width="46" height="46" style="fill:none"/></clipPath></defs><title>telegram</title><g style="clip-path:url(#clip-path)"><rect width="46" height="46" style="fill:url(#Безымянный_градиент)"/></g><g style="clip-path:url(#clip-path-2)"><path d="M15.57,24.68l2.73,7.55s.34.71.7.71,5.8-5.65,5.8-5.65l6.05-11.67L15.67,22.73Z" style="fill:#c8daea"/><path d="M19.19,26.62l-.53,5.57s-.22,1.7,1.49,0,3.34-3,3.34-3" style="fill:#a9c6d8"/><path d="M15.62,25,10,23.12s-.68-.27-.46-.89c0-.12.13-.23.4-.42,1.25-.87,23-8.69,23-8.69a1.84,1.84,0,0,1,1-.07.51.51,0,0,1,.36.39,1.67,1.67,0,0,1,0,.5c0,.14,0,.27,0,.48-.13,2.14-4.1,18.12-4.1,18.12a1.28,1.28,0,0,1-1.09,1A1.54,1.54,0,0,1,28,33.06c-1.67-1.43-7.44-5.31-8.71-6.16a.27.27,0,0,1-.11-.18c0-.09.08-.2.08-.2s10-8.93,10.32-9.87c0-.07-.06-.11-.16-.07-.67.24-12.24,7.55-13.52,8.35a.54.54,0,0,1-.28,0" style="fill:#fff"/></g></svg>