<svg xmlns="http://www.w3.org/2000/svg" version="1.1" id="Layer_1" x="0" y="0" xml:space="preserve" viewBox="44.96 4.65 135.58 53.78"><style>.st4{fill:#1659a0}.st5{fill:#186aaa}.st6{fill:#efb81e}.st7{fill:#ca9c31}</style><path class="st4" d="M78.85 25.57H89.7c1.03 0 1.55.35 1.59 1.11.02.85-.54 1.61-1.37 1.83-.23.04-.47.07-.7.06-2.25 0-4.48.04-6.73 0-4.15-.06-8.16 1.52-11.15 4.41-2.9 2.55-4.75 6.09-5.19 9.93-.75 6.56 3.51 11.81 9.84 12.44 5.92.54 11.37-3.26 12.93-8.99.95-3.82-1.08-7.24-4.78-8.1a7.347 7.347 0 0 0-8.15 4.45 4.91 4.91 0 0 0-.34 3.33 3.676 3.676 0 0 0 3.33 2.67c.94.06 1.3.33 1.27.97-.08.7-.69 1.21-1.39 1.16a5.378 5.378 0 0 1-5.5-5.27c0-.2 0-.41.02-.61.31-3.71 2.39-6.29 5.58-7.97a8.551 8.551 0 0 1 7.65-.27 7.47 7.47 0 0 1 4.66 6.99c.1 3.61-1.28 7.11-3.82 9.69a14.894 14.894 0 0 1-9.06 4.89c-6.47.91-13.62-2.81-15.14-10.69-.36-2.31-.28-4.67.23-6.95.8-4.42 1.59-8.86 2.39-13.29.03-1.02.88-1.83 1.9-1.81.09 0 .17.01.26.02h10.82zm.71 24.12c-.2-.17-.22-.21-.25-.21h-.37a4.444 4.444 0 0 1-3.8-2.6c-.8-1.7-.42-3.31.26-4.88a7.544 7.544 0 0 1 2.6-3.08c.59-.41 1.22-.76 1.88-1.06 1.12-.43 2.33-.59 3.52-.49 1.33.05 2.61.53 3.66 1.35.99.66 1.76 1.61 2.2 2.72.3.8.5 1.64.59 2.49a9.1 9.1 0 0 1-.46 3.43c-.51 1.53-1.3 2.95-2.35 4.18-.66.75-1.4 1.42-2.21 2-.64.54-1.35.99-2.11 1.35-1.43.64-2.95 1.05-4.51 1.2-1.66.15-3.34-.04-4.93-.56-1.69-.5-3.24-1.41-4.5-2.64a11.58 11.58 0 0 1-2.58-3.86c-.78-2.01-1.04-4.18-.76-6.31.24-2.19.96-4.31 2.1-6.2.75-1.16 1.58-2.25 2.49-3.28.32-.29.66-.53 1.04-.74.05-.17.14-.32.26-.45.42-.37.88-.7 1.34-1.04 2.89-2.16 6.42-3.3 10.03-3.25 2.21-.06 4.41 0 6.62 0h.38c.46-.04.81-.44.8-.9 0-.6-.43-.51-.8-.51H68.01c-.59-.06-1.12.15-1.24.69-.27 1.16-.45 2.39-.68 3.54a.22.22 0 0 0 0 .16c.23.45 0 .8-.18 1.22-.07.14-.12.29-.16.44-.17.88-.33 1.76-.49 2.64-.16.88-.33 1.9-.49 2.85-.14.8-.26 1.59-.41 2.44-.19.7-.34 1.42-.43 2.14-.11 1.45-.11 2.91 0 4.36.18 1.17.5 2.31.96 3.4.37.78.81 1.53 1.31 2.23A9.724 9.724 0 0 0 70.18 56c1.1.54 2.25.95 3.43 1.24 1.03.25 2.08.38 3.14.39 1.3.06 2.59-.18 3.78-.7 1.12-.54 2.29-1 3.39-1.59a9.617 9.617 0 0 0 2.92-2.5c.75-.86 1.43-1.78 2.03-2.75.45-.85.81-1.75 1.08-2.68.52-1.43.69-2.96.5-4.46a7.205 7.205 0 0 0-1.59-3.7 6.833 6.833 0 0 0-4.09-2.31 8.14 8.14 0 0 0-5.15.52 9.015 9.015 0 0 0-4.78 4.78c-.19.45-.26.96-.47 1.41-.87 2.25.07 4.79 2.2 5.93.67.35 1.41.53 2.16.53.26-.04.51-.26.83-.42zM77.59 22.61h-9.08c-1.27 0-1.72-.57-1.5-1.82.86-4.78 1.7-9.58 2.54-14.41.07-.82.67-1.5 1.47-1.67.65-.21 1.35.14 1.56.79.07.21.08.43.04.64-.06.8-.19 1.55-.19 2.32-.22 5.76 4.19 10.65 9.94 11.04 1.55.15 3.11.08 4.66.1 1.04 0 1.59.35 1.64 1.11.03.91-.62 1.71-1.52 1.86-.39.05-.79.06-1.19.05h-8.37zM71.86 5.46c-1.21.06-1.33.15-1.59 1.25l-.21 1.05c-.21 1.1-.44 2.2-.63 3.31-.19 1.11-.34 2.19-.53 3.28s-.37 2.09-.57 3.13c-.2 1.04-.4 2.13-.64 3.19-.19.84.07 1.19.96 1.19h17.21c.38 0 .75-.04 1.12-.1.47-.07.82-.48.8-.96-.09-.5-.49-.45-.85-.45H85.8c-1.37.03-2.74-.02-4.11-.14-1.8-.21-3.52-.86-5.01-1.89a11.416 11.416 0 0 1-4.12-5.07c-.68-1.6-.99-3.32-.93-5.05.04-.9.15-1.79.23-2.74zM54.25 25.57h7.27c.68-.1 1.32.37 1.42 1.05.03.18.01.37-.04.54-.8 4.56-1.59 9.11-2.39 13.65-.1.6-.27 1.18-.5 1.74-.25.63-.88 1.01-1.55.94-.64.02-1.17-.48-1.19-1.12v-.15c0-.56.15-1.11.18-1.66.21-3.98-1.07-7.36-4.33-9.81a10.691 10.691 0 0 0-6.42-2.13c-1.19 0-1.73-.4-1.74-1.29 0-.97.78-1.75 1.75-1.75h.05c2.51-.02 5-.01 7.49-.01zm0 .8h-7.33c-.49-.05-.94.24-1.11.7-.13.34-.09.66.41.73 1.04.15 2.08.33 3.11.53 1.03.15 2.02.49 2.92 1 1.37.79 2.59 1.82 3.59 3.04 1.04 1.34 1.77 2.89 2.12 4.55.4 1.7.43 3.47.09 5.19-.1.49.24.76.72.61.46-.12.79-.53.8-1.01.11-.87.29-1.72.45-2.58.16-.86.35-1.78.51-2.68s.25-1.59.37-2.44c.18-1.23.33-2.45.5-3.67 0-.2.05-.4.1-.59.22-.88.45-1.76.65-2.64.11-.52-.08-.72-.62-.72l-7.28-.02z"/><path class="st5" d="M79.56 49.69c-.33.16-.57.4-.8.39a4.92 4.92 0 0 1-2.16-.53 4.784 4.784 0 0 1-2.21-5.93c.21-.45.28-.96.47-1.41a9.015 9.015 0 0 1 4.78-4.78 8.16 8.16 0 0 1 5.11-.49 6.82 6.82 0 0 1 4.05 2.34 7.158 7.158 0 0 1 1.59 3.7c.19 1.51.02 3.04-.5 4.46-.27.93-.63 1.82-1.08 2.68-.6.97-1.28 1.89-2.03 2.75a9.737 9.737 0 0 1-2.92 2.5c-1.1.58-2.26 1.04-3.39 1.59-1.19.52-2.48.76-3.78.7a13.46 13.46 0 0 1-3.1-.42c-1.19-.29-2.34-.71-3.43-1.25a9.724 9.724 0 0 1-3.98-3.54c-.49-.72-.92-1.48-1.28-2.28-.46-1.09-.78-2.23-.96-3.4-.11-1.45-.11-2.91 0-4.36.09-.72.24-1.44.43-2.14.15-.8.27-1.59.41-2.44.16-.95.33-1.9.49-2.85s.32-1.76.49-2.64c.04-.15.09-.3.16-.44.17-.39.41-.8.18-1.22a.22.22 0 0 1 0-.16c.22-1.18.41-2.39.68-3.54.12-.53.65-.75 1.24-.69H89.7c.37 0 .8-.09.8.51.01.46-.33.86-.8.9h-.38c-2.21 0-4.41-.05-6.62 0a16.38 16.38 0 0 0-10.03 3.23c-.45.33-.92.67-1.34 1.04-.12.13-.21.29-.26.45-.37.21-.72.46-1.04.74-.92 1.05-1.77 2.17-2.52 3.35-1.15 1.9-1.86 4.02-2.1 6.23-.28 2.13-.02 4.3.76 6.31a11.58 11.58 0 0 0 2.58 3.86c1.26 1.24 2.81 2.15 4.5 2.64 1.59.52 3.27.7 4.93.56 1.56-.15 3.08-.56 4.51-1.2a9.71 9.71 0 0 0 2.11-1.35c.81-.58 1.56-1.25 2.21-2 1.05-1.23 1.84-2.65 2.35-4.18.38-1.1.53-2.26.46-3.43-.09-.85-.29-1.69-.59-2.49a5.874 5.874 0 0 0-2.2-2.72 6.277 6.277 0 0 0-3.66-1.35c-1.2-.11-2.4.06-3.52.49-.66.28-1.29.63-1.88 1.03a7.68 7.68 0 0 0-2.6 3.05c-.69 1.59-1.08 3.19-.26 4.88.69 1.5 2.15 2.5 3.8 2.59h.37c.03.01.08.09.28.26zM71.86 5.46c-.08.94-.19 1.83-.23 2.73-.06 1.73.26 3.46.93 5.05.85 2.06 2.28 3.82 4.12 5.07 1.49 1.03 3.21 1.68 5.01 1.89 1.37.12 2.74.17 4.11.14h1.14c.36 0 .8-.06.85.45.02.48-.32.89-.8.96-.37.07-.75.1-1.12.1H68.69c-.89 0-1.16-.35-.96-1.19.24-1.06.43-2.13.64-3.19s.39-2.08.57-3.13c.18-1.05.33-2.19.53-3.28.19-1.09.42-2.21.63-3.31l.21-1.05c.22-1.08.34-1.17 1.55-1.24zM54.27 26.33h7.27c.54 0 .73.21.62.72-.19.88-.43 1.77-.65 2.64-.05.19-.06.39-.1.59-.17 1.22-.33 2.45-.5 3.67-.11.8-.23 1.59-.37 2.44-.14.84-.34 1.78-.51 2.68-.17.9-.34 1.71-.45 2.58-.01.48-.33.89-.8 1.01-.48.15-.8-.12-.72-.61.35-1.72.33-3.49-.07-5.19-.35-1.66-1.08-3.21-2.12-4.55a13.259 13.259 0 0 0-3.59-3.04c-.9-.51-1.9-.85-2.92-1-1.04-.19-2.07-.37-3.11-.53-.53-.07-.53-.39-.41-.73.17-.46.62-.75 1.11-.7 2.44.03 4.87.02 7.32.02zM125.07 33.54c-.33 0-.65-.04-.97-.12a3.328 3.328 0 0 1-2.5-3.91c.13-.89.29-1.79.45-2.66l.07-.39c.22-1.17.3-2.77-1.34-3.19-.21-.06-.43-.09-.65-.09a2.9 2.9 0 0 0-2.75 2.31c-.28 1.21-.49 2.46-.69 3.66-.1.62-.22 1.27-.33 1.9 0 .15-.05.32-.06.47.01.36-.09.71-.29 1.01-.37.3-.79.54-1.24.69l-.39.18-.2-.35c-.22-.28-.36-.63-.4-.99.54-3.47 1.17-6.99 1.78-10.4l.43-2.39c0-.2.06-.4.08-.6.01-.47.13-.92.36-1.33.32-.33.71-.58 1.15-.74l.41-.2c.06.11.13.22.18.31.24.31.4.67.47 1.06.01.63-.06 1.27-.19 1.89-.06.31-.12.64-.17.97-.01.08.02.17.08.22.05.05.11.08.18.08l1.43-.19c.23-.03.46-.05.69-.05 1.22-.04 2.38.47 3.19 1.39.8.98 1.13 2.26.89 3.51-.06.37-.14.76-.21 1.13-.18.78-.3 1.58-.33 2.39 0 .62.5 1.74 1.08 1.84h.18c.71-.04 1.36-.4 1.76-.99.23-.73.04-1.53-.5-2.07-.93-.66-1.31-1.07-.8-1.91.24-.45.7-.73 1.2-.73.38.02.74.12 1.08.29 1.59.8 2.24 2.61 1.59 4.54a5.231 5.231 0 0 1-4.72 3.46z"/><path class="st4" d="m117.86 16.71.07.1c.21.28.35.6.42.94.01.61-.05 1.23-.19 1.82-.06.32-.11.65-.16.99a.523.523 0 0 0 .52.59h.07l.59-.08.8-.12c.22-.03.43-.04.65-.04 1.14-.05 2.24.42 3 1.27.74.93 1.04 2.13.8 3.3-.06.37-.14.75-.21 1.12-.19.8-.3 1.62-.34 2.44 0 .72.57 1.97 1.3 2.1h.23c.8-.04 1.54-.45 1.99-1.12.29-.84.07-1.78-.58-2.39-.98-.7-1.09-.95-.69-1.59.19-.37.57-.6.98-.61.34.02.67.11.96.27 1.48.72 2.06 2.39 1.43 4.21a4.933 4.933 0 0 1-4.49 3.32c-.31 0-.61-.03-.91-.1a3.079 3.079 0 0 1-2.3-3.62c.12-.89.29-1.79.45-2.66l.06-.38c.14-.73.53-2.96-1.53-3.51-.23-.06-.47-.1-.72-.1a3.182 3.182 0 0 0-2.96 2.53c-.28 1.22-.49 2.47-.69 3.67l-.33 1.9c-.03.16-.05.33-.06.49 0 .3-.07.6-.21.87-.35.28-.74.5-1.16.65l-.18.08-.09-.15c-.18-.24-.3-.51-.37-.8.54-3.47 1.17-6.99 1.78-10.36l.43-2.39c.04-.2.06-.4.08-.61 0-.44.11-.88.31-1.27.3-.3.66-.52 1.05-.67l.2-.09m.21-.69c-.69.26-1.32.65-1.86 1.14-.31.63-.48 1.33-.49 2.03-.8 4.27-1.54 8.53-2.21 12.81-.08.52.48 1.14.73 1.72.69-.25 1.34-.59 1.94-1.03.34-.33.32-1.05.42-1.59.34-1.85.6-3.72 1.02-5.58.24-1.2 1.27-2.07 2.49-2.1.2 0 .39.03.58.08 1.11.3 1.47 1.21 1.16 2.92-.18 1.02-.37 2.04-.52 3.07-.38 1.9.81 3.75 2.69 4.2.34.08.69.12 1.04.12a5.477 5.477 0 0 0 4.99-3.66c.71-2.04 0-3.98-1.7-4.86-.37-.19-.77-.3-1.19-.32-.59 0-1.14.32-1.42.84-.7 1.08-.07 1.59.8 2.27.44.46.6 1.12.42 1.73-.35.5-.92.81-1.53.85h-.14c-.38-.06-.88-1.02-.87-1.59.1-1.17.28-2.33.54-3.48.5-2.31-.96-4.59-3.27-5.09a4.53 4.53 0 0 0-1.04-.1c-.24 0-.48.02-.72.05l-1.43.19c.21-.96.33-1.93.36-2.92-.16-.62-.43-1.19-.79-1.7z"/><path class="st5" d="M132.55 33.5c-.11.01-.21.01-.32 0-.69-.13-.87-.53-.69-1.59.27-1.59.54-3.15.8-4.78l.34-1.98a.288.288 0 0 0-.05-.2.294.294 0 0 0-.18-.1l-.3-.06h-.22a.33.33 0 0 0-.14 0h-.1c-.35.15-.72.24-1.09.28-.26 0-.56-.07-.8-.61a1.32 1.32 0 0 1 0-1.1c.25-.42.67-.71 1.16-.8 1.74-.37 2.39-1.59 3.11-2.83v-.06a6.834 6.834 0 0 1 5.79-3.53c.58 0 1.15.09 1.69.29 2.03.58 3.31 2.57 3 4.65-.43 3.33-1.04 6.69-1.64 9.94l-.22 1.19c-.04.7-.61 1.24-1.31 1.26-.11.01-.21.01-.32 0-.91-.17-.92-.71-.72-1.82l.09-.49c.51-2.84 1.04-5.79 1.54-8.69.32-1.86-.2-3.07-1.54-3.61-.34-.14-.7-.2-1.07-.2-1.2 0-2.31.6-2.98 1.59-.43.71-.72 1.49-.86 2.31-.37 1.93-.72 3.89-1.04 5.78-.14.85-.29 1.71-.45 2.57l-.05.29c-.06.4-.15.8-.26 1.19-.09.6-.57 1.04-1.17 1.11z"/><path class="st4" d="M140.02 16.43c.54 0 1.08.09 1.59.27.91.3 1.7.89 2.25 1.66.52.8.72 1.77.57 2.72-.42 3.32-1.04 6.68-1.63 9.93l-.22 1.19a1.12 1.12 0 0 1-1.05 1.04h-.27c-.64-.12-.72-.36-.51-1.52l.09-.48c.51-2.85 1.04-5.8 1.54-8.71.43-2.49-.69-3.49-1.7-3.9-.37-.15-.77-.22-1.16-.22-1.28.01-2.47.65-3.19 1.7-.44.73-.75 1.54-.89 2.39-.37 1.93-.72 3.89-1.04 5.78-.14.84-.29 1.71-.45 2.57l-.05.3c-.06.39-.14.77-.25 1.15-.2.63-.56.94-1.07.94h-.27c-.42-.08-.66-.21-.48-1.31.27-1.59.53-3.11.8-4.78.12-.65.23-1.31.34-1.97a.569.569 0 0 0-.09-.4c-.08-.12-.2-.2-.33-.22-.1-.01-.19-.03-.29-.06-.09-.01-.18-.01-.27 0-.08 0-.16.02-.24.06h-.1c-.32.14-.66.23-1 .26-.18 0-.37 0-.53-.45-.13-.28-.13-.6 0-.88.22-.35.57-.59.98-.66 1.86-.39 2.55-1.59 3.28-2.96v-.07a6.614 6.614 0 0 1 5.58-3.39m0-.49a7.085 7.085 0 0 0-6.02 3.66c-.72 1.31-1.31 2.39-2.96 2.76-.91.13-1.55.97-1.42 1.88.02.12.05.24.09.35.11.47.53.8 1.01.8.44-.04.88-.15 1.28-.33h.05c.08 0 .2.04.49.09-.4 2.29-.8 4.5-1.16 6.72-.14.84-.18 1.7.89 1.9.12.02.24.04.37.04.77-.01 1.44-.55 1.59-1.31.14-.5.25-1 .32-1.51.49-2.78.95-5.58 1.49-8.35.13-.78.4-1.53.8-2.21.63-.91 1.66-1.45 2.76-1.46.33 0 .66.06.97.18 1.2.48 1.67 1.59 1.38 3.32-.53 3.07-1.08 6.12-1.59 9.18-.17.93-.32 1.9.92 2.13.12.02.24.04.37.04.84 0 1.53-.64 1.59-1.47.68-3.7 1.38-7.41 1.86-11.15a4.448 4.448 0 0 0-3.19-4.93c-.57-.2-1.17-.31-1.78-.3l-.11-.03z"/><path class="st5" d="M107.16 33.54c-.99.03-1.94-.37-2.61-1.1-.67-.8-.97-1.85-.8-2.88.13-1.03.32-2.07.5-3.08.11-.63.22-1.27.33-1.92.06-.37.09-.76.12-1.16 0-.19 0-.39.05-.61a.256.256 0 0 0-.06-.19.243.243 0 0 0-.18-.09H103.79c-.2.04-.4.06-.6.06-.8 0-.85-.46-.87-.65.05-.62.33-1.19.8-1.59 2.19-.18 2.58-1.65 2.99-3.19.05-.19.63-.4 1.01-.53l.49-.19.14.29c.2.37.36.76.47 1.17.04.33.01.66-.07.97-.05.22-.08.44-.1.67-.01.07.01.14.06.2.05.05.11.08.18.09l.8.06 1.51.1c.46-.01.91.15 1.26.45.18.23.25.51.2.8-.04.74-.66 1.31-1.4 1.27h-.05c-.09.01-.19.01-.28 0l-.25-.05c-.1-.03-.2-.05-.3-.06-.35-.05-.7-.08-1.05-.09-1.2 0-1.38.69-1.59 2.1l-.55 3.14-.23 1.31c-.16.56-.07 1.15.23 1.64.22.26.54.41.88.41h.08c.76-.07 1.46-.45 1.94-1.05.25-.31.35-.72.25-1.11-.17-.5-.55-.91-1.05-1.09-.74-.35-.96-.8-.65-1.48.2-.57.75-.95 1.35-.96.19 0 .38.03.56.08.78.21 1.45.73 1.84 1.44.5.92.62 2.01.33 3.02a5.279 5.279 0 0 1-4.33 3.73c-.24.05-.44.06-.63.07z"/><path class="st4" d="M107.49 16.73v.08c.19.35.34.72.45 1.11.02.29 0 .58-.07.87 0 .21-.08.44-.11.69-.01.14.03.28.12.39.09.11.22.18.37.19l.8.06 1.51.1c.4-.01.8.13 1.1.4.13.18.18.4.14.62-.02.6-.53 1.07-1.13 1.05h-.54c-.1 0-.22-.06-.33-.07-.36-.05-.72-.07-1.08-.08-1.48 0-1.65.97-1.88 2.31-.18 1.04-.37 2.1-.55 3.12-.08.45-.15.88-.23 1.32-.17.63-.07 1.3.28 1.85.27.32.66.51 1.08.52h.09c.85-.07 1.62-.49 2.14-1.16.3-.37.41-.86.3-1.33-.19-.58-.62-1.04-1.19-1.27-.8-.36-.69-.8-.53-1.14.17-.47.61-.79 1.12-.8.17 0 .33.03.49.07.71.2 1.32.68 1.68 1.32.46.84.58 1.83.33 2.76a4.982 4.982 0 0 1-4.11 3.54c-.18.01-.37.01-.55 0-.9.02-1.77-.35-2.39-1.01-.61-.75-.87-1.72-.7-2.67.14-1.02.32-2.06.5-3.07.11-.63.22-1.28.33-1.92.06-.39.1-.8.13-1.19 0-.19.02-.39.05-.6a.481.481 0 0 0-.13-.38.47.47 0 0 0-.36-.18H104.03a.739.739 0 0 0-.21 0c-.18.04-.36.06-.54.06-.58 0-.6-.24-.61-.4.05-.47.24-.92.54-1.29 2.31-.22 2.76-1.88 3.19-3.36.27-.17.56-.3.86-.39l.28-.1M107.79 16.07c-.65.33-1.77.53-1.89 1-.41 1.59-.8 2.84-2.76 3.01-.41 0-1.04 1.23-1.01 1.86s.53.89 1.12.89c.22 0 .43-.03.65-.07h.66c-.06.65-.08 1.2-.17 1.74-.27 1.67-.61 3.33-.8 5.01-.39 1.93.86 3.81 2.79 4.2.28.06.56.08.85.07.21.01.41.01.62 0a5.565 5.565 0 0 0 4.54-3.92c.59-2.17-.44-4.27-2.34-4.78-.21-.05-.42-.08-.63-.09-.71 0-1.35.44-1.59 1.11a1.265 1.265 0 0 0 .8 1.83c.8.39 1.21 1.1.69 1.82-.42.54-1.05.88-1.73.96h-.06c-.93-.06-1.01-.95-.87-1.76.26-1.48.53-2.96.8-4.45.27-1.49.41-1.88 1.37-1.88.34.01.68.03 1.02.08.18 0 .37.09.56.11h.3c.88.07 1.65-.58 1.72-1.46v-.05c.12-1.11-.72-1.53-1.73-1.59l-2.28-.16c.14-.57.2-1.15.18-1.73-.19-.61-.44-1.19-.74-1.75h-.07z"/><path class="st5" d="M154.59 33.49h-.22l-1.37-.15h-.61a.25.25 0 0 0-.14.04h-1c-1.94 0-3.33-.5-4.13-1.46-.8-.96-1.03-2.39-.69-4.27.11-.61.22-1.21.32-1.82.24-1.36.49-2.77.75-4.16.88-4.78 4.62-5.53 6.76-5.53.71 0 1.42.07 2.12.2.43.06.83.29 1.08.65.16.29.18.64.06.96-.14.65-.74 1.1-1.4 1.05-.19 0-.37-.02-.56-.06-.79-.16-1.59-.24-2.39-.25h-.13c-1.47-.09-2.76.97-2.97 2.42-.45 2.28-.88 4.68-1.24 7.11-.15.64-.01 1.31.37 1.84.48.5 1.14.77 1.83.74H154.56c1.14.05 1.65.46 1.64 1.36 0 .81-.65 1.33-1.61 1.33z"/><path class="st4" d="M154.24 16.39c.69.01 1.39.07 2.07.2.36.04.69.23.91.53.12.23.14.5.04.74-.11.53-.59.91-1.14.87-.17 0-.34-.02-.51-.06-.82-.17-1.65-.25-2.48-.25H153a3.1 3.1 0 0 0-3.19 2.66c-.45 2.28-.88 4.68-1.24 7.12-.16.71-.01 1.46.43 2.05.52.54 1.26.84 2.02.8H154.55c1.16.05 1.4.48 1.39 1.1 0 .8-.73 1.02-1.35 1.02h-.21l-1.36-.1-.61-.04h-.04c-.07 0-.14.01-.2.04h-.93c-1.86 0-3.19-.47-3.94-1.37s-.96-2.25-.64-4.05c.11-.61.22-1.21.32-1.82.24-1.36.49-2.77.75-4.15.85-4.63 4.45-5.32 6.51-5.32m.01-.54c-3.38 0-6.26 1.66-7.03 5.74-.37 1.99-.71 3.98-1.06 5.97-.7 3.98 1.03 6.01 5.08 6.04h1.13c.65.05 1.31.09 1.97.14h.25c1.08 0 1.86-.59 1.88-1.53 0-1.23-.87-1.59-1.9-1.59H151.04c-1.49-.06-2.17-.8-1.96-2.29.36-2.37.77-4.74 1.24-7.09a2.571 2.571 0 0 1 2.68-2.24h.13c.8 0 1.6.08 2.39.24.2.04.4.06.61.06.75.02 1.42-.49 1.59-1.23.36-1.14-.44-1.76-1.35-1.94-.71-.13-1.44-.2-2.17-.21l.05-.07z"/><path class="st6" d="M105.4 54.06c-.38-.02-.75-.16-1.06-.39-1.59-1.1-2.39-2.72-2.39-5.11.06-.33.1-.68.16-1.05.14-.96.31-2.06.56-3.13.19-.47.16-1-.08-1.45-.3-.32-.73-.48-1.16-.45h-.1c-.4 0-.85 0-1.06-.26a.757.757 0 0 1-.14-.6c-.03-.6.43-1.11 1.03-1.13.07 0 .14 0 .21.01H101.96c.98 0 1.52-.54 1.66-1.65 0-.28.22-1.18 1.13-1.18h.06c.21-.01.42.07.57.22.17.37.2.79.08 1.18-.08.37.01.75.23 1.05.32.28.74.41 1.16.36h.21c.96 0 1.12.49 1.16.86.05.28-.03.57-.21.8-.21.21-.5.32-.8.32h-.47c-1.94 0-2.25 1.39-2.32 2.76-.06.78-.2 1.56-.4 2.32-.52 1.7.18 3.54 1.7 4.46.5.34.74.62.8.89.02.26-.07.51-.25.7-.19.28-.52.46-.87.47z"/><path class="st7" d="M104.72 37.92h.06c.14-.01.27.03.38.12.16.2.1.8.07.97-.09.44.02.9.29 1.25.36.34.85.5 1.35.45h.19c.8 0 .88.41.9.63.04.2-.02.41-.15.57a.8.8 0 0 1-.62.24h-.42c-2.44 0-2.54 2.1-2.58 3-.06.77-.19 1.53-.39 2.27-.55 1.82.19 3.78 1.81 4.78.15.11.63.44.68.72-.01.19-.08.36-.2.5-.15.24-.4.4-.69.41-.33-.03-.64-.15-.91-.35-1.59-1.06-2.29-2.57-2.32-4.88.06-.32.11-.66.17-1.03.14-.96.3-2.05.55-3.11.2-.55.16-1.16-.13-1.67a1.78 1.78 0 0 0-1.36-.55h-.1c-.31 0-.74 0-.88-.18a.558.558 0 0 1-.07-.4c0-.62.33-.89.98-.89H101.92c1.12 0 1.77-.63 1.93-1.87 0-.29.19-.96.87-.96m0-.52c-.76.03-1.37.65-1.39 1.41-.12.96-.53 1.42-1.41 1.42h-.58a1.35 1.35 0 0 0-1.5 1.18c-.01.06-.01.13-.01.19-.07 1.12.8 1.11 1.59 1.14 1.18.05 1.22.61 1 1.59-.34 1.51-.53 3.04-.72 4.21 0 2.45.8 4.17 2.54 5.35.35.26.77.41 1.2.44.44-.01.86-.24 1.1-.61.66-.88.16-1.43-.6-1.96a3.631 3.631 0 0 1-1.59-4.19c.22-.78.35-1.58.41-2.39.07-1.47.42-2.5 2.06-2.5h.42c.66.03 1.23-.48 1.26-1.15 0-.08 0-.17-.01-.25-.08-.8-.69-1.1-1.42-1.1h-.19c-.72 0-1.24-.16-1.12-1.12.09-.8.11-1.59-.95-1.68l-.09.02z"/><path class="st6" d="M172.59 54c-.1.01-.2.01-.29 0-.45-.08-.47-.29-.49-.8 0-.18-.02-.36-.06-.54l.44-2.39c.43-2.39.86-4.78 1.3-7.13.08-.44.29-.91.57-.91.14.01.29.01.43 0 .85-.05 1.68-.33 2.39-.8.4-.24.83-.43 1.27-.59l.15-.05c.35-.13.71-.21 1.08-.23.39-.03.74.24.8.63.22.73-.33 1-1.24 1.33l-.13.05a6.054 6.054 0 0 0-4.26 5.24c-.17 1.32-.45 2.66-.72 3.98l-.26 1.25c-.12.63-.45.96-.98.96z"/><path class="st7" d="M179.42 40.82c.26 0 .42.07.54.45s-.06.63-1.08 1.01l-.14.05c-2.44.75-4.19 2.9-4.42 5.45-.17 1.31-.45 2.64-.72 3.93l-.26 1.26c-.16.8-.58.8-.74.8-.08.01-.16.01-.25 0-.23 0-.25-.05-.28-.57 0-.18-.02-.36-.05-.53l.42-2.3c.43-2.37.87-4.76 1.31-7.17.08-.45.25-.68.32-.69a5.097 5.097 0 0 0 2.97-.8c.39-.23.8-.42 1.22-.57l.16-.05c.32-.12.66-.19 1-.22m-.01-.54c-.45.04-.89.13-1.31.29-1.21.38-2.2 1.38-3.57 1.38-.13.01-.27.01-.4 0h-.07c-.47 0-.73.6-.8 1.12-.59 3.19-1.17 6.42-1.74 9.56.15.65-.15 1.44.75 1.59.12.02.23.04.35.04.69 0 1.1-.46 1.25-1.19.36-1.74.8-3.47.99-5.23a5.834 5.834 0 0 1 4.09-5.03c.8-.31 1.86-.63 1.53-1.7-.1-.48-.54-.82-1.04-.8l-.03-.03z"/><path class="st6" d="M124.67 54.06c-.4-.05-.75-.28-.96-.63-1.02-1.42-.91-3.03-.8-4.73v-.22c.18-2.62.61-5.22 1.27-7.77.14-.61.29-1.23.42-1.86.32-.75.61-1.22 1.11-1.22.14.01.28.04.41.09.62.24.57.8.42 1.59v.25c-.26 1.59-.55 3.19-.8 4.72-.25 1.38-.5 2.8-.73 4.21s-.35 2.64.6 3.8c.2.21.3.5.27.8-.07.33-.27.62-.57.8-.18.12-.41.18-.64.17z"/><path class="st7" d="M125.75 37.33v.52c.11 0 .21.03.31.07.38.14.43.38.26 1.3l-.05.25c-.25 1.59-.54 3.19-.8 4.73-.25 1.38-.5 2.8-.73 4.21s-.37 2.76.65 3.98c.14.16.22.36.21.57-.06.25-.22.46-.45.59a.93.93 0 0 1-.46.18c-.31-.06-.59-.25-.74-.53-.97-1.34-.86-2.91-.75-4.56v-.22c.18-2.6.6-5.18 1.27-7.7.14-.61.28-1.23.41-1.84.27-.64.52-1.04.86-1.04v-.51m.01 0c-.72 0-1.07.72-1.36 1.39-.69 3.19-1.59 6.37-1.7 9.68-.12 1.78-.3 3.56.8 5.13.25.42.68.69 1.16.73.29 0 .57-.09.8-.26.6-.3.85-1.02.55-1.62-.05-.11-.12-.21-.21-.3-.89-1.11-.75-2.39-.54-3.59.5-2.99 1.07-5.96 1.59-8.94.12-.8.42-1.75-.54-2.12-.16-.06-.33-.1-.5-.1h-.05z"/><path class="st6" d="M159.5 53.99h-.25c-.55-.08-.57-.37-.56-.96.01-.14.01-.27 0-.41.14-.8.29-1.66.42-2.49.38-2.23.8-4.54 1.19-6.8.23-1.24.85-1.24 1.05-1.24.13 0 .26.02.39.06.68.18.63.61.49 1.36v.18c-.6 3.39-1.13 6.37-1.59 9.15-.25 1.03-.76 1.15-1.14 1.15z"/><path class="st7" d="M161.36 42.32c.11 0 .22.02.32.05.4.1.47.21.3 1.07v.18c-.6 3.42-1.13 6.37-1.59 9.15-.18.96-.61.96-.8.96a.81.81 0 0 1-.22 0c-.31-.05-.34-.08-.33-.7v-.4c.14-.8.28-1.64.42-2.46.38-2.23.8-4.53 1.19-6.8.19-1.04.63-1.04.8-1.04m-.01-.51c-.8 0-1.16.68-1.31 1.46-.57 3.11-1.09 6.21-1.59 9.32.06.65-.22 1.49.8 1.65h.3c.8 0 1.18-.6 1.32-1.39l1.59-9.15c.13-.73.38-1.59-.65-1.85-.15-.04-.3-.06-.45-.06l-.01.02z"/><path class="st6" d="M161.84 40.19a.828.828 0 0 1-.65-.24.919.919 0 0 1-.2-.71c.1-1.43.8-1.59 1.32-1.59.23-.02.45.06.61.22.11.12.18.28.18.44-.06 1.59-.53 1.9-1.27 1.9v-.02z"/><path class="st7" d="M162.32 37.88c.15-.01.3.04.42.14.07.07.1.16.11.25.02.47-.08.94-.29 1.35-.17.22-.44.33-.72.29a.572.572 0 0 1-.45-.16.711.711 0 0 1-.14-.51c.1-1.19.59-1.36 1.07-1.36m0-.52c-1.16 0-1.51.89-1.59 1.86a1.037 1.037 0 0 0 1.11 1.22c1.06 0 1.48-.66 1.53-2.15a.956.956 0 0 0-.96-.94c-.03 0-.06.01-.09.01z"/><path class="st6" d="M164.6 54.06c-.33.02-.66-.12-.88-.37a.845.845 0 0 1-.1-.8c.04-.09.08-.18.13-.27.12-.22.2-.45.25-.69.04-.29.09-.57.14-.85l.44-2.79c.23-1.44.51-3.19.8-4.88.14-.8.45-1.24.91-1.24h.2a5.7 5.7 0 0 0 2.54-.8c.35-.18.71-.33 1.08-.47l.13-.05c.39-.17.8-.27 1.23-.3.33-.02.63.18.74.49.11.19.14.42.07.63-.14.37-.71.59-1.2.8l-.2.08c-2.61 1.06-4.03 2.82-4.32 5.38-.1.73-.24 1.45-.41 2.16-.08.33-.15.67-.22 1v.06c.02.62-.03 1.24-.16 1.84-.08.43-.35.79-.74.99-.13.05-.26.07-.4.07l-.03.01z"/><path class="st7" d="M171.45 40.84c.23-.02.44.12.5.34.08.13.11.28.07.42-.1.25-.64.47-1.06.64l-.2.08c-2.72 1.09-4.18 2.92-4.48 5.58-.1.72-.23 1.43-.41 2.13-.07.33-.15.67-.22 1.01v.1c.02.6-.04 1.19-.16 1.78-.06.34-.28.63-.58.8-.1.03-.2.05-.3.05a.888.888 0 0 1-.67-.26.616.616 0 0 1-.07-.56l.12-.25c.13-.25.22-.52.27-.8.05-.29.09-.57.14-.87l.06-.33.14-.92.24-1.52c.23-1.45.51-3.19.8-4.88.11-.68.33-1.02.65-1.02h.2a5.93 5.93 0 0 0 2.65-.8c.34-.17.7-.33 1.06-.46l.13-.05c.36-.15.75-.25 1.14-.29m-.01-.52c-.5.05-.98.17-1.44.37-1.17.41-2.2 1.21-3.54 1.21h-.2c-.8 0-1.05.8-1.16 1.45-.28 1.59-.53 3.26-.8 4.88-.13.8-.25 1.59-.39 2.45-.06.4-.12.8-.19 1.19-.08.31-.2.62-.35.9-.14.36-.09.76.14 1.07.27.32.67.49 1.08.48.17 0 .34-.03.5-.1.44-.21.77-.6.9-1.08.14-.63.2-1.27.18-1.91.22-1.07.52-2.12.64-3.19.29-2.63 1.82-4.22 4.16-5.17.85-.34 2-.69 1.47-1.84a.986.986 0 0 0-.97-.64l-.03-.07z"/><path class="st6" d="M148.12 54.06h-.22c-1.78 0-2.91-1.07-4.1-2.15l-.65-.58c-1.38-1.2-1.02-2.59-.65-4.06.07-.29.14-.58.21-.88.11-.57.3-1.13.57-1.64v-.07l.31-1.64c.24-1.28.49-2.62.7-3.94.21-1.31.71-1.4 1.13-1.4h.18c.21 0 .4.09.54.24.15.34.17.72.07 1.08v.3c0 .09-.06.41-.11.64-.16.56-.17 1.15-.05 1.72.02.07.07.13.14.17.04.01.07.01.11 0 .03.01.06.01.1 0 .28-.11.55-.24.8-.36.55-.26 1.12-.48 1.7-.67.64-.19 1.31-.29 1.98-.29 1.89-.03 3.67.86 4.78 2.39 1.24 1.75 1.06 5.45-.36 7.33a8.63 8.63 0 0 1-7.17 3.8l-.01.01zm-.43-10.73a6.066 6.066 0 0 0-2.91 4.16 3.98 3.98 0 0 0 1.01 3.26 4.2 4.2 0 0 0 3.11 1.39c.59 0 1.17-.11 1.71-.32a6.116 6.116 0 0 0 3.98-5.23c.05-1.91-.92-3.23-2.88-3.94-.47-.21-.98-.32-1.5-.33-.92.03-1.82.39-2.52 1.01z"/><path class="st7" d="M145.44 37.95h.15c.13 0 .26.05.37.14.11.14.06.55 0 .88v.32c-.03.2-.06.41-.11.61-.15.61-.15 1.24 0 1.85.02.16.11.3.25.37.07.04.15.06.23.06.07 0 .14-.02.2-.04.28-.11.55-.24.8-.36.54-.26 1.1-.48 1.66-.66.62-.18 1.26-.28 1.91-.28 1.81-.04 3.52.81 4.58 2.28 1.17 1.65.99 5.26-.35 7.03a8.398 8.398 0 0 1-6.99 3.69h-.22c-1.67 0-2.76-1.03-3.93-2.08-.22-.19-.43-.4-.65-.59-1.26-1.09-.94-2.39-.57-3.8.07-.29.15-.59.22-.88.1-.55.28-1.09.53-1.59.03-.05.05-.1.06-.16.1-.54.21-1.09.31-1.59.24-1.29.49-2.63.7-3.98.18-1.18.63-1.18.88-1.18m2.07 5.14c-1.59.93-2.7 2.51-3.04 4.33-.19 1.26.21 2.54 1.08 3.47.85.93 2.05 1.47 3.31 1.47.62 0 1.23-.12 1.8-.34a6.353 6.353 0 0 0 4.17-5.46c.05-2.01-1-3.45-3.05-4.19-.5-.22-1.04-.34-1.59-.34-1 .03-1.96.4-2.72 1.05m-2.07-5.7c-.89 0-1.25.72-1.39 1.59-.29 1.86-.67 3.71-1.01 5.58-.28.54-.48 1.12-.59 1.71-.37 1.75-1.26 3.62.53 5.18 1.45 1.26 2.72 2.76 4.92 2.8h.22c2.96.01 5.74-1.45 7.4-3.9 1.51-2 1.64-5.84.36-7.64a6.028 6.028 0 0 0-4.99-2.48c-.7 0-1.39.11-2.06.3-.86.3-1.71.65-2.53 1.04-.1-.76-.05-1.53.16-2.26.08-.8.39-1.77-.8-1.9h-.21l-.01-.02zm3.44 14.45a3.98 3.98 0 0 1-2.92-1.31c-1.85-1.99-.99-5.26 1.86-7.03.66-.59 1.51-.93 2.39-.96.51 0 1.02.11 1.48.33 1.74.62 2.76 1.78 2.72 3.69-.2 2.27-1.7 4.22-3.85 4.99-.51.2-1.05.3-1.59.31l-.09-.02z"/><path class="st6" d="M113.43 54.06c-1.55.07-3.05-.55-4.11-1.68-1.74-2.05-2-4.39-.8-6.97a8.487 8.487 0 0 1 7.34-4.89c1.7.01 3.33.68 4.54 1.86a6.35 6.35 0 0 1 1.43 2.65l.08.23c.26.68.17 1.45-.25 2.06-.45.63-1.18.99-1.95.97H112.26c-.5 0-1.35 0-1.59.86-.32 1.03.58 1.8.88 2.06.61.53 1.4.82 2.21.8.58-.01 1.16-.08 1.73-.21.31-.05.62-.14.91-.27.28-.13.58-.21.88-.24.21 0 .44.06.61.56.11.25.11.54 0 .8-.21.42-.85.65-1.43.84l-.43.16c-.82.29-1.71.43-2.6.41zm4.18-7.81c.12-.01.23-.01.35 0 .15.01.29.01.44 0 .42.04.82-.22.96-.62.18-.64-.05-1.33-.57-1.74l-.16-.18a3.751 3.751 0 0 0-3.01-1.29 5.465 5.465 0 0 0-5.11 3.44.27.27 0 0 0 .04.23c.05.07.12.11.21.11h6.84l.01.05z"/><path class="st7" d="M115.86 40.78c1.63.01 3.2.66 4.37 1.8.65.73 1.12 1.6 1.37 2.55 0 .08.05.15.08.23.23.61.14 1.28-.22 1.82-.4.56-1.05.88-1.74.87h-7.45a1.68 1.68 0 0 0-1.86 1.04c-.25.8.07 1.59.96 2.33.67.55 1.52.84 2.39.8.59-.02 1.19-.09 1.77-.22.33-.05.66-.15.96-.28.25-.12.52-.19.8-.22.1 0 .23 0 .37.38.08.18.08.38 0 .56-.15.33-.8.54-1.27.72l-.44.15c-.8.32-1.66.48-2.52.48-1.47.07-2.9-.51-3.91-1.59a5.787 5.787 0 0 1-.74-6.69 8.224 8.224 0 0 1 7.08-4.78m-1.39 5.75h3.44c.16.01.31.01.47 0 .53.04 1.03-.29 1.2-.8.17-.68-.05-1.41-.57-1.88l-.15-.18c-.8-.92-1.97-1.43-3.19-1.39a5.729 5.729 0 0 0-5.42 3.62.504.504 0 0 0 .48.68h3.73m1.39-6.28a8.762 8.762 0 0 0-7.54 5.04 6.322 6.322 0 0 0 .8 7.25 5.55 5.55 0 0 0 4.33 1.8c.93 0 1.85-.18 2.71-.52.96-.37 2.49-.65 1.99-2.09-.2-.55-.5-.73-.86-.73-.57 0-1.26.45-1.83.51-.55.13-1.12.2-1.69.22-.74.02-1.47-.23-2.04-.71-.61-.37-.92-1.08-.8-1.78.2-.65.8-.68 1.36-.68h7.45c1.38.07 2.56-1 2.63-2.39.02-.34-.04-.68-.16-1a7.069 7.069 0 0 0-1.59-2.98 6.726 6.726 0 0 0-4.72-1.94h-.04zm-1.39 5.78h-3.71a5.206 5.206 0 0 1 4.87-3.27c1.07-.05 2.1.39 2.81 1.19.4.49.95.98.69 1.66-.1.3-.4.5-.72.46-.26 0-.54-.06-.8-.06h-3.11l-.03.02z"/><path class="st6" d="M133.22 54.06c-.6 0-1.2-.08-1.78-.24a5.22 5.22 0 0 1-3.4-2.8 6.468 6.468 0 0 1 0-5.31 8.13 8.13 0 0 1 7.74-5.12h.43c2.04.1 3.54 1.14 4.83 3.4.48 1.82.68 3.07.22 3.66-.36.45-1.16.65-2.76.65H131.81c-.76-.1-1.46.42-1.59 1.17.01.43.18.84.48 1.15.47.65 1.15 1.11 1.93 1.3H134c.42.01.84-.06 1.23-.19l.53-.06c.02.01.04.01.06 0 .02.01.03.01.05 0 .31-.29.7-.47 1.12-.54.29.02.54.19.69.44.17.18.24.44.2.69-.06.27-.35.53-.8.8a7.797 7.797 0 0 1-3.86 1zm3.28-7.81H137.82c.6 0 .97-.14 1.16-.44.25-.43 0-1.01-.22-1.41a3.496 3.496 0 0 0-3.28-1.95c-.25 0-.49.02-.73.05-2.04.26-3.35 1.06-4.15 2.49-.19.25-.22.59-.1.88.14.24.41.35.85.36h5.2l-.05.02z"/><path class="st7" d="M135.8 40.87h.41c1.94.09 3.36 1.08 4.6 3.23.44 1.68.65 2.9.25 3.41-.29.38-1.06.54-2.56.54H131.81c-.9-.12-1.73.49-1.88 1.39-.03.51.16 1.01.53 1.36.39.48 1.34 1.39 2.13 1.39h1.37c.44.01.89-.06 1.31-.2l.52-.1a.4.4 0 0 0 .18-.1c.27-.25.61-.41.97-.49.06 0 .24 0 .47.33.12.12.18.3.17.47 0 .11-.16.33-.7.59-1.1.67-2.36 1.04-3.65 1.06-.58 0-1.16-.08-1.72-.24a4.978 4.978 0 0 1-3.23-2.66 6.113 6.113 0 0 1 0-5.09 7.862 7.862 0 0 1 7.5-4.96m-3.11 5.67h5.17c.53.05 1.04-.17 1.38-.57.22-.55.14-1.18-.22-1.66a3.74 3.74 0 0 0-3.51-2.09c-.27 0-.53.02-.8.05-2.13.27-3.51 1.11-4.34 2.62-.24.33-.28.77-.1 1.13.24.35.65.54 1.08.49h1.35m3.12-6.17a8.436 8.436 0 0 0-7.97 5.27c-1.59 3.64 0 7.5 3.55 8.46.6.17 1.23.26 1.86.25 1.38-.02 2.74-.41 3.92-1.13.8-.39 1.35-.96.72-1.84-.19-.32-.52-.52-.89-.54-.48.07-.93.27-1.28.6l-.56.1c-.38.13-.77.19-1.17.18-.46 0-.92-.06-1.37-.06-.73 0-2.27-1.52-2.15-2.13.17-.85.8-.96 1.37-.96h6.7c3.44 0 3.8-.8 2.79-4.68-1.13-1.98-2.6-3.45-5.07-3.55l-.45.03zm-3.11 5.66h-1.34c-.59 0-.88-.24-.53-.86a4.822 4.822 0 0 1 3.98-2.39c.23-.03.47-.05.7-.05 1.29-.06 2.49.66 3.06 1.82.49.92.43 1.47-.71 1.47H134.63l-1.94.01z"/></svg>
