<?xml version="1.0" encoding="UTF-8"?>
<svg id="Layer_1" data-name="Layer 1" xmlns="http://www.w3.org/2000/svg" viewBox="0 0 25 25">
  <defs>
    <style>
      .cls-1 {
        fill: #0077ce;
      }
    </style>
  </defs>
  <path class="cls-1" d="M23.06,5.92C20.77,2.29,16.79,.09,12.5,.09,5.62,.07,.05,5.65,.04,12.53,.04,17.39,2.85,21.8,7.26,23.84c3.43,1.59,7.4,1.54,10.8-.14,.3-.15,.59-.31,.86-.47,.08-.05,.13-.1,.21-.14,5.82-3.65,7.58-11.34,3.92-17.16h0Zm.32,8.9c-.04,.19-.08,.37-.13,.56-.12,.45-.27,.9-.45,1.34-.09,.22-.18,.44-.3,.65-.06,.14-.13,.29-.21,.43-.04,.07-.07,.13-.12,.19-.11,.21-.23,.41-.36,.6-.91,1.4-2.15,2.59-3.59,3.45-.08-.02-.15-.04-.23-.04h-.27c-.05-.35-.04-.69,.02-1.04,.33-1.47,.73-2.94,1.18-4.36,.89-2.28,1.06-4.78,.46-7.16-.65-2.65-2.67-4.75-5.29-5.52-.21-.07-.39-.22-.51-.41-.39-.69-.93-1.29-1.56-1.76-.04,.31-.06,.53-.07,.72,0,.31,0,.61,.03,.9,.04,.42-.09,.67-.55,.72-.26,.03-.51,.09-.76,.17,0,.62-.28,1.05-.84,1.28-.29,.11-.57,.22-.83,.35-.21,.13-.4,.3-.56,.49-.37,.42-.68,.91-1.09,1.3-.82,.76-1.68,1.48-2.55,2.2-.38,.3-.66,.58-.48,1.11,.03,.18,0,.37-.06,.55-.03,.7,.31,1.37,.89,1.76,1.03,.62,2.36,.39,3.13-.54,.38-.47,1.03-.64,1.59-.42,.89,.37,1.88,.47,2.83,.28-.2,.22-.34,.35-.45,.48-1.25,1.19-2.34,2.52-3.25,3.97-.78,1.13-1.21,2.46-1.25,3.82,0,.37,.04,.75,.09,1.11h-.11c-.21,0-.39,.11-.5,.28-.93-.5-1.76-1.11-2.48-1.82-.46-.45-.88-.94-1.25-1.46-.35-.49-.66-1-.93-1.53-.22-.43-.4-.88-.56-1.34-.98-2.84-.82-6.05,.73-8.9C5.65,1.85,12.39-.16,17.79,2.76c.91,.49,1.72,1.09,2.43,1.78,.18,.17,.35,.35,.52,.54,.34,.36,.64,.75,.91,1.15,.14,.2,.28,.41,.4,.62,.77,1.29,1.27,2.7,1.46,4.18,.03,.18,.05,.35,.06,.53,.04,.33,.05,.65,.05,.99,0,.48-.03,.96-.1,1.44-.03,.29-.08,.57-.14,.84Z"/>
</svg>